<svg xmlns="http://www.w3.org/2000/svg" version="1.1" xmlnsXlink="http://www.w3.org/1999/xlink" xmlnsSvgjs="http://svgjs.com/svgjs" width="100%" preserveAspectRatio="xMidYMid meet" viewBox="0 0 5000 300"><g mask="url(&quot;#SvgjsMask1108&quot;)" fill="none"><path d="M 0,129 C 250,118 750,71.8 1250,74 C 1750,76.2 2000,147.4 2500,140 C 3000,132.6 3250,38.8 3750,37 C 4250,35.2 4750,112.2 5000,131L5000 300L0 300z" fill="rgba(120, 163, 136, 1)"></path><path d="M 0,279 C 166.8,256 500.4,168 834,164 C 1167.6,160 1334.4,253.2 1668,259 C 2001.6,264.8 2168.4,195.4 2502,193 C 2835.6,190.6 3002.4,249.2 3336,247 C 3669.6,244.8 3837.2,173.4 4170,182 C 4502.8,190.6 4834,268.4 5000,290L5000 300L0 300z" fill="rgba(52, 53, 52, 1)"></path></g><defs><mask id="SvgjsMask1108"><rect width="5000" height="300" fill="#ffffff"></rect></mask></defs></svg>