<svg xmlns="http://www.w3.org/2000/svg" version="1.1" xmlnsXlink="http://www.w3.org/1999/xlink" xmlnsSvgjs="http://svgjs.com/svgjs" width="100%" preserveAspectRatio="xMidYMid meet" viewBox="0 0 5000 300"
transform="rotate(180)">
><g mask="url(&quot;#SvgjsMask1005&quot;)" fill="none"><path d="M 0,73 C 250,79.6 750,115.8 1250,106 C 1750,96.2 2000,25.4 2500,24 C 3000,22.6 3250,102.4 3750,99 C 4250,95.6 4750,25.4 5000,7L5000 300L0 300z" fill="rgba(120, 163, 136, 1)"></path><path d="M 0,211 C 166.8,219.6 500.4,265 834,254 C 1167.6,243 1334.4,160 1668,156 C 2001.6,152 2168.4,222.8 2502,234 C 2835.6,245.2 3002.4,204.8 3336,212 C 3669.6,219.2 3837.2,277.4 4170,270 C 4502.8,262.6 4834,194 5000,175L5000 300L0 300z" fill="rgba(52, 53, 52, 1)"></path></g><defs><mask id="SvgjsMask1005"><rect width="5000" height="300" fill="#ffffff"></rect></mask></defs></svg>